# Blender v2.79 (sub 0) OBJ File: ''
# www.blender.org
mtllib Skull.mtl
o Mesh_0104
v -0.135040 0.179970 0.000000
v -0.095480 0.179970 0.095480
v -0.092920 0.224580 0.000000
v -0.065710 0.224580 0.065710
v 0.000000 0.179970 0.135030
v 0.000000 0.224580 0.092920
v 0.095480 0.179970 0.095480
v 0.065710 0.224580 0.065710
v 0.036510 0.051930 0.139500
v 0.086630 0.046650 0.113870
v 0.106070 0.104970 0.106070
v 0.065710 0.224580 0.065710
v 0.000000 0.248790 0.000000
v 0.000000 0.224580 0.092920
v -0.065710 0.224580 0.065710
v 0.000000 0.104970 0.150000
v -0.106070 0.104970 0.106070
v -0.036510 0.051930 0.139500
v -0.086630 0.046650 0.113870
v -0.067710 0.021370 0.068310
v 0.000000 0.000250 0.000000
v 0.000000 0.007990 0.076700
v 0.067710 0.021370 0.068310
v 0.095760 0.021370 0.000000
v 0.086630 0.046650 0.113870
v 0.137700 0.051580 0.000000
v 0.106070 0.104970 0.106070
v 0.150000 0.104970 0.000000
v 0.095480 0.179970 0.095480
v 0.135040 0.179970 0.000000
v 0.065710 0.224580 0.065710
v 0.092920 0.224580 0.000000
v 0.000000 0.248790 0.000000
v -0.135040 0.179970 0.000000
v -0.150000 0.104970 0.000000
v -0.106070 0.104970 0.106070
v -0.137700 0.051580 0.000000
v -0.086630 0.046650 0.113870
v -0.095760 0.021370 0.000000
v -0.067710 0.021370 0.068310
v 0.000000 0.000250 0.000000
v -0.095480 0.179970 0.095480
v 0.000000 0.104970 0.150000
v 0.000000 0.179970 0.135030
v -0.065710 0.224580 0.065710
v 0.000000 0.248790 0.000000
v -0.092920 0.224580 0.000000
v -0.065710 0.224580 -0.065710
v -0.135040 0.179970 0.000000
v -0.095480 0.179970 -0.095480
v -0.150000 0.104970 0.000000
v -0.106070 0.104970 -0.106070
v -0.137700 0.051580 0.000000
v -0.097370 0.051580 -0.097370
v -0.095760 0.021370 0.000000
v -0.067710 0.021370 -0.068310
v 0.000000 0.000250 0.000000
v 0.000000 0.021370 -0.096600
v 0.067710 0.021370 -0.068310
v 0.097370 0.051580 -0.097370
v 0.137700 0.051580 0.000000
v 0.150000 0.104970 0.000000
v -0.036510 0.051930 0.139500
v 0.036510 0.051930 0.139500
v 0.000000 0.104970 0.150000
v 0.106070 0.104970 0.106070
v 0.000000 0.179970 0.135030
v 0.095480 0.179970 0.095480
v 0.097370 0.051580 -0.097370
v 0.106070 0.104970 -0.106070
v 0.150000 0.104970 0.000000
v 0.135040 0.179970 0.000000
v 0.095480 0.179970 -0.095480
v 0.092920 0.224580 0.000000
v 0.065710 0.224580 -0.065710
v 0.000000 0.248790 0.000000
v 0.000000 0.224580 -0.092930
v -0.065710 0.224580 -0.065710
v -0.095480 0.179970 -0.095480
v 0.000000 0.021370 -0.096600
v 0.000000 0.051580 -0.137700
v 0.000000 0.104970 -0.150000
v 0.000000 0.179970 -0.135040
v -0.106070 0.104970 -0.106070
v -0.097370 0.051580 -0.097370
v -0.067710 0.021370 -0.068310
v 0.137700 0.051580 0.000000
v 0.095760 0.021370 0.000000
v 0.067710 0.021370 -0.068310
v 0.000000 0.000250 0.000000
v 0.106070 0.104970 0.106880
v 0.095480 0.179970 0.096300
v 0.000000 0.179970 0.135850
v -0.095480 0.179970 0.096300
v -0.106070 0.104970 0.106880
v 0.000000 0.104970 0.150810
v -0.036510 0.051930 0.140320
v -0.086630 0.046650 0.114690
v 0.000000 0.179970 0.135850
v 0.106070 0.104970 0.106880
v 0.036510 0.051930 0.140320
v 0.086630 0.046650 0.114690
v -0.086860 -0.008240 0.100610
v -0.097990 0.007130 0.125160
v -0.100890 0.010900 0.096660
v -0.086630 0.046650 0.113870
v -0.067710 0.021370 0.068310
v 0.000000 0.007990 0.076700
v 0.000000 0.007990 0.076700
v 0.067710 0.021370 0.068310
v 0.086860 -0.008240 0.100610
v 0.100890 0.010900 0.096660
v 0.097990 0.007130 0.125160
v 0.086630 0.046650 0.113870
v 0.045210 0.007130 0.159150
v 0.036510 0.051930 0.139500
v -0.039370 -0.012250 0.155130
v 0.039370 -0.012250 0.155130
v -0.045210 0.007130 0.159150
v -0.036510 0.051930 0.139500
v 0.045210 0.007130 0.159150
v 0.039370 -0.012250 0.155130
v 0.097990 0.007130 0.125160
v 0.086860 -0.008240 0.100610
v 0.000000 0.007990 0.076700
v 0.000000 0.007990 0.076700
v -0.039370 -0.012250 0.155130
v -0.086860 -0.008240 0.100610
v -0.097990 0.007130 0.125160
v -0.045210 0.007130 0.159150
v -0.086630 0.046650 0.113870
v -0.036510 0.051930 0.139500
v 0.100890 0.010900 0.096660
v 0.086630 0.046650 0.113870
v 0.067710 0.021370 0.068310
vt 1.976600 1.519500
vt 2.484400 1.531300
vt 1.968800 2.066400
vt 2.476600 2.089800
vt 3.000000 1.539100
vt 3.000000 2.097700
vt 3.515600 1.531300
vt 3.523400 2.089800
vt 3.168000 0.410200
vt 3.515600 0.859400
vt 3.515600 0.390600
vt 3.523400 2.089800
vt 3.000000 2.953100
vt 3.000000 2.097700
vt 2.476600 2.089800
vt 3.000000 0.855500
vt 2.484400 0.859400
vt 2.832000 0.410200
vt 2.484400 0.390600
vt 2.480500 -0.043000
vt 3.000000 -0.949200
vt 3.000000 -0.273400
vt 3.519500 -0.043000
vt 3.992200 -0.031300
vt 3.515600 0.390600
vt 3.980500 0.394500
vt 3.515600 0.859400
vt 3.972700 0.855500
vt 3.515600 1.531300
vt 3.964800 1.535200
vt 3.523400 2.089800
vt 3.964800 2.070300
vt 3.000000 2.953100
vt 1.976600 1.519500
vt 1.980500 0.863300
vt 2.484400 0.859400
vt 1.980500 0.402300
vt 2.484400 0.390600
vt 1.968800 -0.023400
vt 2.480500 -0.043000
vt 1.000000 -0.949200
vt 2.484400 1.531300
vt 3.000000 0.855500
vt 3.000000 1.539100
vt 2.476600 2.089800
vt 1.000000 2.953100
vt 1.968800 2.066400
vt 1.480500 2.043000
vt 1.976600 1.519500
vt 1.484400 1.511700
vt 1.980500 0.863300
vt 1.488300 0.863300
vt 1.980500 0.402300
vt 1.484400 0.414100
vt 1.968800 -0.023400
vt 1.476600 0.000000
vt 1.000000 -0.949200
vt 1.000000 0.007800
vt 0.523400 0.000000
vt 0.515600 0.414100
vt 0.019500 0.402300
vt 0.019500 0.863300
vt 2.832000 0.410200
vt 3.168000 0.410200
vt 3.000000 0.855500
vt 3.515600 0.859400
vt 3.000000 1.539100
vt 3.515600 1.531300
vt 0.515600 0.414100
vt 0.511700 0.863300
vt 0.019500 0.863300
vt 0.023400 1.519500
vt 0.515600 1.511700
vt 0.031300 2.066400
vt 0.519500 2.043000
vt 1.000000 2.953100
vt 1.000000 2.035200
vt 1.480500 2.043000
vt 1.484400 1.511700
vt 1.000000 0.007800
vt 1.000000 0.418000
vt 1.000000 0.867200
vt 1.000000 1.507800
vt 1.488300 0.863300
vt 1.484400 0.414100
vt 1.476600 0.000000
vt 0.019500 0.402300
vt 0.031300 -0.023400
vt 0.523400 0.000000
vt 1.000000 -0.949200
vt 1.000000 -0.871100
vt 1.062500 -0.695300
vt 0.863300 -0.695300
vt 1.062500 0.000000
vt 0.597700 -0.589800
vt 1.000000 -0.996100
vt 1.000000 -0.996100
vt 1.484400 -0.589800
vt 1.062500 -0.871100
vt 1.214800 -0.695300
vt 1.000000 -0.695300
vt 1.000000 0.000000
vt 0.000000 -0.695300
vt 0.000000 0.000000
vt 1.878900 -0.871100
vt 0.128900 -0.871100
vt 2.000000 -0.695300
vt 1.828100 0.000000
vt 0.171900 0.000000
vt 1.878900 -0.871100
vt 0.128900 -0.871100
vt 0.000000 -0.695300
vt 0.000000 -0.871100
vt 1.000000 -0.695300
vt 1.062500 -0.871100
vt 0.500000 -0.996100
vt 1.500000 -0.996100
vt 2.000000 -0.871100
vt 1.000000 -0.871100
vt 1.062500 -0.695300
vt 2.000000 -0.695300
vt 1.062500 0.000000
vt 2.000000 0.000000
vt 1.214800 -0.695300
vt 1.000000 0.000000
vt 1.488300 -0.589800
vt 2.000000 -0.558600
vt 1.898400 0.000000
vt 1.000000 0.000000
vt 0.101600 0.000000
vt 0.000000 -0.558600
vt 1.000000 -0.558600
vt 0.656300 -0.957000
vt 0.183600 -0.996100
vt 1.000000 0.000000
vt 2.000000 -0.558600
vt 1.343800 -0.957000
vt 1.816400 -0.996100
vn -0.6962 0.6573 0.2885
vn -0.6056 0.7943 0.0477
vn -0.6964 0.6572 0.2884
vn -0.4599 0.8092 0.3658
vn -0.8184 0.4642 0.3388
vn -0.2037 0.8466 0.4916
vn -0.3945 0.7943 0.4619
vn -0.5207 0.4027 0.7528
vn -0.2883 0.6573 0.6963
vn -0.0665 0.8092 0.5838
vn -0.3486 0.4121 0.8418
vn 0.2036 0.8467 0.4916
vn 0.2884 0.6573 0.6963
vn 0.1866 0.4495 0.8736
vn 0.5517 0.5588 0.6192
vn 0.2884 0.6572 0.6964
vn -0.4524 0.0316 -0.8912
vn 0.1038 0.9625 0.2508
vn 0.0000 0.9677 0.2521
vn -0.1038 0.9625 0.2508
vn -0.3814 0.0802 0.9209
vn -0.4185 0.0234 0.9079
vn -0.4039 0.0462 0.9136
vn -0.4524 -0.0316 0.8912
vn -0.2046 -0.9739 0.0983
vn -0.0075 -0.9561 0.2930
vn 0.2046 -0.9739 0.0983
vn 0.1123 -0.9744 0.1948
vn 0.2038 -0.9748 0.0903
vn 0.3040 -0.9329 0.1933
vn 0.1970 -0.9203 0.3381
vn 0.2090 -0.9741 0.0858
vn 0.5436 -0.8091 0.2232
vn 0.4235 -0.8751 0.2343
vn 0.7264 -0.6774 -0.1164
vn 0.5870 -0.7195 0.3711
vn 0.4650 -0.6605 0.5895
vn 0.8337 -0.5223 0.1795
vn 0.9479 -0.2972 0.1146
vn 0.7592 -0.4549 0.4655
vn 0.8922 -0.2469 0.3783
vn 0.7990 -0.0488 0.5993
vn 0.8150 -0.1876 0.5483
vn 0.8973 -0.2382 0.3716
vn 0.9088 0.1814 0.3759
vn 0.8754 0.0214 0.4829
vn 0.9774 0.0311 0.2091
vn 0.8108 0.2751 0.5166
vn 0.7971 0.1589 0.5825
vn 0.9025 0.3646 0.2291
vn 0.8212 0.5697 0.0326
vn 0.7501 0.4443 0.4899
vn 0.8377 0.5123 0.1891
vn 0.5006 0.7002 0.5091
vn 0.6316 0.5964 0.4954
vn 0.6142 0.7803 0.1182
vn 0.4719 0.8685 -0.1519
vn 0.2264 0.8685 0.4410
vn 0.2508 0.9625 0.1038
vn -0.9086 0.1812 0.3763
vn -0.9117 -0.1323 0.3889
vn -0.9037 -0.2082 0.3743
vn -0.8994 -0.2189 0.3784
vn -0.7929 -0.5075 0.3372
vn -0.5700 -0.7913 0.2214
vn -0.4382 -0.8820 0.1736
vn -0.4381 -0.8807 0.1799
vn -0.2145 -0.9727 0.0881
vn -0.9085 0.1814 0.3764
vn -0.6934 0.1957 0.6934
vn -0.3763 0.1814 0.9086
vn -0.3763 0.1813 0.9086
vn -0.2508 0.9625 0.1038
vn -0.4683 0.8736 -0.1322
vn -0.2508 0.9625 -0.1038
vn -0.4147 0.8936 -0.1718
vn -0.8443 0.4060 -0.3497
vn -0.6963 0.6572 -0.2885
vn -0.8443 0.4060 -0.3498
vn -0.9238 -0.0130 -0.3827
vn -0.9201 0.0909 -0.3811
vn -0.8068 -0.4873 -0.3342
vn -0.9036 -0.2082 -0.3743
vn -0.8068 -0.4876 -0.3336
vn -0.4413 -0.8787 -0.1821
vn -0.3471 -0.9176 -0.1935
vn -0.0727 -0.9823 -0.1725
vn 0.0424 -0.9589 -0.2806
vn 0.3126 -0.8678 -0.3863
vn 0.4586 -0.8074 -0.3712
vn 0.5701 -0.7869 -0.2361
vn 0.9036 -0.2082 -0.3743
vn 0.0000 -0.1942 0.9810
vn 0.2424 -0.0251 0.9699
vn 0.2626 0.0332 0.9643
vn 0.3782 0.1524 0.9131
vn 0.3763 0.1814 0.9086
vn 0.3763 0.1814 0.9085
vn 0.9640 -0.1879 -0.1884
vn 0.9086 0.1812 -0.3763
vn 0.9605 0.0215 -0.2774
vn 0.9386 0.2753 -0.2080
vn 0.9754 0.1593 -0.1522
vn 0.9085 0.1814 -0.3764
vn 0.6962 0.6573 -0.2885
vn 0.8767 0.4443 -0.1842
vn 0.7260 0.5125 -0.4585
vn 0.7140 0.7001 0.0059
vn 0.8614 0.5076 -0.0170
vn 0.5179 0.7803 -0.3506
vn 0.2264 0.8685 -0.4410
vn 0.3607 0.9270 0.1027
vn 0.2467 0.9468 -0.2066
vn -0.2024 0.9719 -0.1201
vn 0.1394 0.9883 -0.0611
vn 0.2066 0.9468 -0.2466
vn -0.1039 0.9625 -0.2507
vn -0.1845 0.9680 -0.1700
vn 0.1519 0.8685 -0.4719
vn -0.4724 0.8386 -0.2714
vn -0.2885 0.6572 -0.6963
vn -0.0961 0.5961 -0.7971
vn 0.2382 -0.7825 -0.5752
vn 0.5925 -0.6491 -0.4771
vn 0.1148 -0.3935 -0.9121
vn 0.2303 -0.1930 -0.9538
vn 0.4567 -0.4543 -0.7649
vn 0.1932 -0.2742 -0.9421
vn 0.5999 -0.0513 -0.7984
vn 0.5483 -0.1876 -0.8150
vn 0.3007 -0.0329 -0.9531
vn 0.1912 0.1638 -0.9678
vn 0.4829 0.0214 -0.8754
vn 0.2091 0.0311 -0.9774
vn 0.5166 0.2751 -0.8108
vn 0.5019 0.1691 -0.8482
vn 0.2291 0.3646 -0.9025
vn 0.0326 0.5697 -0.8212
vn 0.5460 0.3667 -0.7533
vn 0.2885 0.6572 -0.6963
vn 0.2884 0.6573 -0.6963
vn -0.2885 0.6573 -0.6963
vn -0.5578 0.5698 -0.6035
vn -0.1468 0.3666 -0.9187
vn -0.2452 0.1695 -0.9545
vn -0.4764 0.3645 -0.8001
vn -0.2080 0.2753 -0.9386
vn -0.5433 0.0308 -0.8390
vn -0.5489 0.1634 -0.8198
vn -0.2774 0.0215 -0.9605
vn -0.1884 -0.1879 -0.9640
vn -0.4611 -0.0328 -0.8867
vn -0.1403 -0.0513 -0.9888
vn -0.5295 -0.2740 -0.8028
vn -0.6283 -0.1751 -0.7580
vn -0.2178 -0.4543 -0.8638
vn 0.0827 -0.6475 -0.7575
vn -0.4913 -0.5134 -0.7036
vn -0.2381 -0.7845 -0.5726
vn -0.5473 -0.7671 -0.3347
vn -0.2402 -0.7822 -0.5749
vn -0.2392 -0.7840 -0.5728
vn 0.5683 -0.7890 -0.2334
vn 0.2145 -0.9727 -0.0881
vn -0.8069 -0.5907 0.0040
vn -0.9410 0.3095 0.1367
vn -0.8372 0.4692 -0.2810
vn -0.8522 0.4600 -0.2494
vn -0.3543 -0.4330 -0.8289
vn -0.4690 -0.4948 -0.7316
vn -0.3066 -0.6042 -0.7355
vn -0.3543 -0.4330 -0.8288
vn -0.0563 -0.7191 -0.6926
vn 0.0563 -0.7191 -0.6926
vn 0.5341 -0.6627 -0.5249
vn 0.4690 -0.4948 -0.7316
vn 0.6852 -0.5903 -0.4267
vn 0.8763 0.1497 0.4579
vn 0.9410 0.3095 0.1367
vn 0.6533 0.3973 0.6445
vn 0.4704 0.4052 0.7839
vn 0.4465 0.4307 0.7843
vn 0.0000 -0.2031 0.9792
vn 0.0000 0.1173 0.9931
vn 0.0000 0.4017 0.9158
vn 0.0000 -0.9683 -0.2499
vn 0.5130 -0.3198 0.7966
vn 0.9566 -0.1599 0.2438
vn 0.4424 -0.8364 0.3236
vn 0.5411 -0.8198 0.1878
vn 0.1018 -0.8633 0.4943
vn 0.4179 -0.7120 -0.5643
vn -0.1309 -0.9739 -0.1856
vn -0.2357 -0.9482 0.2128
vn 0.1309 -0.9739 -0.1856
vn -0.4179 -0.7120 -0.5643
vn -0.4420 -0.8367 0.3234
vn -0.5411 -0.8198 0.1878
vn -0.3431 -0.8582 0.3819
vn -0.9566 -0.1599 0.2438
vn -0.7538 -0.3571 0.5515
vn -0.3245 -0.8007 0.5036
vn -0.5034 0.3680 0.7817
vn -0.7069 0.0899 0.7016
vn -0.4739 0.3653 0.8013
vn -0.6786 0.5718 0.4610
vn -0.4465 0.4307 0.7843
vn -0.4520 0.3860 0.8042
vn -0.6425 -0.5250 0.5581
vn 0.3763 0.1813 0.9086
vn -0.3074 0.1929 0.9318
vn -0.3814 0.0804 0.9209
vn -0.3513 0.0952 0.9314
vn -0.4116 0.1043 0.9054
vn -0.3117 -0.0105 0.9501
vn -0.4524 -0.0315 0.8912
vn -0.4596 0.0625 0.8859
vn -0.3764 0.1812 0.9086
vn -0.0184 0.6080 0.7937
vn -0.3803 -0.1112 0.9181
vn 0.1168 -0.2098 0.9707
vn 0.3838 0.3688 0.8466
vn 0.3031 0.1098 0.9466
vn 0.5439 -0.0326 0.8385
vn 0.4119 0.1038 0.9053
vn 0.3640 0.0620 0.9293
vn 0.3453 -0.0099 0.9384
vn 0.4596 0.0625 0.8859
vn 0.4524 -0.0315 0.8912
usemtl Tex_0041_0_png
s 1
f 1/1/1 2/2/2 3/3/1
f 3/3/3 2/2/4 4/4/5
f 2/2/6 5/5/7 4/4/8
f 4/4/9 5/5/10 6/6/11
f 5/5/12 7/7/13 6/6/14
f 6/6/15 7/7/16 8/8/16
f 9/9/17 11/10/17 10/11/17
f 12/12/18 13/13/19 14/14/19
f 13/13/19 15/15/20 14/14/19
f 16/16/21 17/17/22 18/18/23
f 17/17/22 19/19/24 18/18/23
f 20/20/25 21/21/26 22/22/25
f 22/22/27 21/21/28 23/23/29
f 21/21/30 24/24/31 23/23/32
f 23/23/33 24/24/34 25/25/35
f 24/24/36 26/26/37 25/25/38
f 25/25/39 26/26/40 27/27/41
f 26/26/42 28/28/43 27/27/44
f 27/27/45 28/28/46 29/29/47
f 28/28/48 30/30/49 29/29/50
f 29/29/51 30/30/52 31/31/53
f 30/30/54 32/32/55 31/31/56
f 31/31/57 32/32/58 33/33/59
f 34/34/60 35/35/60 36/36/61
f 35/35/62 37/37/63 36/36/61
f 36/36/61 37/37/63 38/38/64
f 37/37/65 39/39/66 38/38/64
f 38/38/64 39/39/66 40/40/67
f 39/39/66 41/41/68 40/40/67
f 34/34/69 36/36/69 42/42/70
f 36/36/71 43/43/71 42/42/70
f 42/42/70 43/43/71 44/44/72
f 45/45/73 46/46/73 47/47/74
f 46/46/75 48/48/76 47/47/74
f 47/47/74 48/48/76 49/49/77
f 48/48/78 50/50/79 49/49/77
f 49/49/77 50/50/79 51/51/80
f 50/50/79 52/52/81 51/51/80
f 51/51/80 52/52/81 53/53/82
f 52/52/83 54/54/84 53/53/82
f 53/53/82 54/54/84 55/55/85
f 54/54/84 56/56/86 55/55/85
f 55/55/85 56/56/86 57/57/87
f 56/56/86 58/58/88 57/57/87
f 57/57/87 58/58/88 59/59/89
f 58/58/88 60/60/90 59/59/89
f 59/59/89 60/60/90 61/61/91
f 60/60/92 62/62/92 61/61/92
f 63/63/93 64/64/94 65/65/95
f 64/64/94 66/66/96 65/65/95
f 65/65/95 66/66/96 67/67/97
f 66/66/96 68/68/98 67/67/97
f 69/69/92 70/70/99 71/71/92
f 71/71/100 70/70/101 72/72/100
f 70/70/102 73/73/103 72/72/104
f 72/72/105 73/73/106 74/74/107
f 73/73/108 75/75/109 74/74/110
f 74/74/111 75/75/112 76/76/113
f 75/75/114 77/77/115 76/76/116
f 76/76/117 77/77/118 78/78/119
f 77/77/120 79/79/121 78/78/122
f 80/80/123 81/81/124 69/69/125
f 69/69/126 81/81/127 70/70/128
f 81/81/129 82/82/130 70/70/131
f 70/70/132 82/82/133 73/73/134
f 82/82/135 83/83/136 73/73/137
f 73/73/138 83/83/139 75/75/140
f 83/83/141 77/77/141 75/75/141
f 77/77/142 83/83/143 79/79/144
f 79/79/145 83/83/146 84/84/147
f 83/83/148 82/82/149 84/84/150
f 84/84/151 82/82/152 85/85/153
f 82/82/154 81/81/155 85/85/156
f 85/85/157 81/81/158 86/86/159
f 81/81/160 80/80/161 86/86/162
f 87/87/163 88/88/163 89/89/163
f 88/88/164 90/90/164 89/89/164
usemtl Tex_0042_0_png
f 103/91/165 104/92/165 105/93/165
f 104/92/166 106/94/167 105/93/168
f 106/94/167 107/95/169 105/93/168
f 105/93/170 107/95/169 103/91/171
f 107/95/172 108/96/173 103/91/171
f 109/97/174 110/98/174 111/99/175
f 110/98/176 112/100/177 111/99/175
f 111/99/175 112/100/177 113/101/178
f 112/100/179 114/102/180 113/101/178
f 113/101/178 114/102/180 115/103/181
f 114/102/180 116/104/182 115/103/181
f 117/105/183 118/106/183 119/107/184
f 118/106/183 115/103/184 119/107/184
f 119/107/184 115/103/184 120/108/185
f 115/103/184 116/109/185 120/108/185
f 118/110/186 117/111/186 109/97/186
f 121/112/187 122/113/188 123/114/187
f 123/114/189 122/113/190 124/115/191
f 122/113/192 125/116/193 124/115/194
f 126/117/195 127/118/196 128/119/195
f 128/119/197 127/118/198 129/120/199
f 127/118/200 130/121/201 129/120/202
f 129/120/203 130/121/204 131/122/205
f 130/121/206 132/123/207 131/122/208
f 133/124/209 134/125/209 135/126/209
usemtl Tex_0040_0_png
f 91/127/210 92/128/210 93/129/210
f 94/130/72 95/131/211 96/132/72
f 96/132/212 95/131/213 97/133/214
f 95/131/215 98/134/216 97/133/217
f 94/130/218 96/132/219 99/135/220
f 99/135/221 96/132/222 100/136/223
f 96/132/224 101/137/225 100/136/226
f 100/136/227 101/137/228 102/138/229
