# 3ds Max Wavefront OBJ Exporter v0.97b - (c)2007 guruware
# File Created: 20.03.2019 23:08:25

mtllib Door_Alternate_Closed_B.mtl

#
# object Door_Alternate_Closed
#

v  126.1250 43.2500 14.8047
v  126.1250 126.1250 14.8047
v  42.0313 126.1250 14.8047
v  126.1250 -39.5625 14.8047
v  42.0313 43.2500 14.8047
v  -42.0313 126.1250 14.8047
v  -126.1250 -122.4375 14.8047
v  -121.9375 -126.1250 14.8047
v  -40.6250 -126.1250 14.8047
v  -126.1250 -39.5625 14.8047
v  -42.0313 -39.5625 14.8047
v  -126.1250 43.2500 14.8047
v  -42.0313 43.2500 14.8047
v  -126.1250 126.1250 14.8047
v  42.0313 -39.5625 14.8047
v  121.9375 -126.1250 14.8047
v  126.1250 -122.4375 14.8047
v  40.6250 -126.1250 14.8047
v  -121.9375 -126.1250 -14.8047
v  -126.1250 -122.4375 -14.8047
v  -126.1250 -39.5625 -14.8047
v  126.1250 -122.4375 -14.8047
v  121.9375 -126.1250 -14.8047
v  40.6250 -126.1250 -14.8047
v  126.1250 -39.5625 -14.8047
v  42.0313 -39.5625 -14.8047
v  -40.6250 -126.1250 -14.8047
v  -42.0313 -39.5625 -14.8047
v  -42.0313 43.2500 -14.8047
v  -126.1250 43.2500 -14.8047
v  -42.0313 126.1250 -14.8047
v  -126.1250 126.1250 -14.8047
v  126.1250 43.2500 -14.8047
v  42.0313 43.2500 -14.8047
v  42.0313 126.1250 -14.8047
v  126.1250 126.1250 -14.8047
v  -128.0000 43.8750 -13.0703
v  -128.0000 -40.1875 -13.0703
v  -128.0000 -124.3125 -13.0703
v  -123.7500 -128.0000 -13.0703
v  -41.2500 -128.0000 -13.0703
v  41.2500 -128.0000 -13.0703
v  123.7500 -128.0000 -13.0703
v  128.0000 -124.3125 -13.0703
v  128.0000 -40.1875 -13.0703
v  128.0000 43.8750 -13.0703
v  128.0000 128.0000 -13.0703
v  42.6563 128.0000 -13.0703
v  -42.6563 128.0000 -13.0703
v  -128.0000 128.0000 -13.0703
v  -41.2500 -128.0000 13.0703
v  -123.7500 -128.0000 13.0703
v  -128.0000 -124.3125 13.0703
v  -128.0000 -40.1875 13.0703
v  -128.0000 43.8750 13.0703
v  -128.0000 128.0000 13.0703
v  -42.6563 128.0000 13.0703
v  42.6563 128.0000 13.0703
v  128.0000 128.0000 13.0703
v  128.0000 43.8750 13.0703
v  128.0000 -40.1875 13.0703
v  128.0000 -124.3125 13.0703
v  123.7500 -128.0000 13.0703
v  41.2500 -128.0000 13.0703
# 64 vertices

vn 0.0000 0.0000 1.0000
vn 0.0000 0.0000 -1.0000
vn -0.6790 0.0000 -0.7341
vn -0.5642 -0.1824 -0.8052
vn -0.4988 -0.2647 -0.8253
vn -0.2348 -0.5264 -0.8172
vn -0.1549 -0.5860 -0.7954
vn 0.0000 -0.6790 -0.7341
vn 0.1549 -0.5860 -0.7954
vn 0.2348 -0.5264 -0.8172
vn 0.5642 -0.1824 -0.8052
vn 0.4988 -0.2647 -0.8253
vn 0.6790 0.0000 -0.7341
vn 0.3871 0.3871 -0.8369
vn 0.0000 0.6790 -0.7341
vn -0.3871 0.3871 -0.8369
vn 0.0000 -0.6790 0.7341
vn -0.1549 -0.5860 0.7954
vn -0.2348 -0.5264 0.8172
vn -0.5642 -0.1824 0.8052
vn -0.4988 -0.2647 0.8253
vn -0.6790 0.0000 0.7341
vn -0.3871 0.3871 0.8369
vn 0.0000 0.6790 0.7341
vn 0.3871 0.3871 0.8369
vn 0.6790 0.0000 0.7341
vn 0.5642 -0.1824 0.8052
vn 0.4988 -0.2647 0.8253
vn 0.2348 -0.5264 0.8172
vn 0.1549 -0.5860 0.7954
vn 0.0000 1.0000 -0.0000
vn -0.7071 0.7071 -0.0000
vn -1.0000 0.0000 -0.0000
vn -0.9098 -0.4151 -0.0000
vn 0.9098 -0.4151 -0.0000
vn 1.0000 0.0000 -0.0000
vn 0.7071 0.7071 -0.0000
vn -0.3498 -0.9368 -0.0000
vn 0.0000 -1.0000 -0.0000
vn 0.3498 -0.9368 -0.0000
# 40 vertex normals

vt 0.8735 0.5889 0.5889
vt 0.8735 0.8717 0.8717
vt 0.5854 0.8717 0.8717
vt 0.8735 0.3062 0.3062
vt 0.5854 0.5889 0.5889
vt 0.2976 0.8717 0.8717
vt 0.0096 0.0229 0.0229
vt 0.0239 0.0103 0.0103
vt 0.3025 0.0103 0.0103
vt 0.0096 0.3062 0.3062
vt 0.2976 0.3062 0.3062
vt 0.0096 0.5889 0.5889
vt 0.2976 0.5889 0.5889
vt 0.0096 0.8717 0.8717
vt 0.5854 0.3062 0.3062
vt 0.8594 0.0103 0.0103
vt 0.8735 0.0229 0.0229
vt 0.5811 0.0103 0.0103
vt 0.8804 0.5908 0.5908
vt 0.8804 0.3037 0.3037
vt 0.8804 0.0166 0.0166
vt 0.8657 0.0039 0.0039
vt 0.5830 0.0039 0.0039
vt 0.3003 0.0039 0.0039
vt 0.0177 0.0039 0.0039
vt 0.0032 0.0166 0.0166
vt 0.0032 0.3037 0.3037
vt 0.0032 0.5908 0.5908
vt 0.0032 0.8781 0.8781
vt 0.2954 0.8781 0.8781
vt 0.5879 0.8781 0.8781
vt 0.8804 0.8781 0.8781
vt 0.9927 -0.7188 -0.7188
vt 0.8882 -0.7188 -0.7188
vt 0.8882 -1.0332 -1.0332
vt 0.9927 -1.0332 -1.0332
vt 0.8882 -1.3457 -1.3457
vt 0.9927 -1.3457 -1.3457
vt 0.8882 -1.6563 -1.6563
vt 0.9927 -1.6563 -1.6563
vt 0.8882 -1.9688 -1.9688
vt 0.9927 -1.9688 -1.9688
vt 0.9927 0.8472 0.8472
vt 0.8882 0.8472 0.8472
vt 0.8882 0.5359 0.5359
vt 0.9927 0.5359 0.5359
vt 0.8882 0.2246 0.2246
vt 0.9927 0.2246 0.2246
vt 0.8882 -0.0869 -0.0869
vt 0.9927 -0.0869 -0.0869
vt 0.8882 -0.4023 -0.4023
vt 0.9927 -0.4023 -0.4023
vt 0.9927 1.7944 1.7944
vt 0.8882 1.7944 1.7944
vt 0.8882 1.7793 1.7793
vt 0.9927 1.7793 1.7793
vt 0.8882 1.4736 1.4736
vt 0.9927 1.4736 1.4736
vt 0.8882 1.1682 1.1682
vt 0.9927 1.1682 1.1682
vt 0.8882 0.8629 0.8629
vt 0.9927 0.8629 0.8629
# 62 texture coords

o Door_Alternate_Closed
g Door_Alternate_Closed
usemtl Door_A_Diffuse_shader
s 1
f 1/1/1 2/2/1 3/3/1 
f 4/4/1 1/1/1 5/5/1 
f 3/3/1 5/5/1 1/1/1 
f 5/5/1 3/3/1 6/6/1 
f 7/7/1 8/8/1 9/9/1 
f 10/10/1 7/7/1 9/9/1 
f 11/11/1 10/10/1 9/9/1 
f 12/12/1 10/10/1 11/11/1 
f 11/11/1 13/13/1 12/12/1 
f 14/14/1 12/12/1 13/13/1 
f 13/13/1 6/6/1 14/14/1 
f 6/6/1 13/13/1 5/5/1 
f 15/15/1 5/5/1 13/13/1 
f 5/5/1 15/15/1 4/4/1 
f 16/16/1 4/4/1 15/15/1 
f 16/16/1 17/17/1 4/4/1 
f 18/18/1 16/16/1 15/15/1 
f 18/18/1 15/15/1 11/11/1 
f 13/13/1 11/11/1 15/15/1 
f 11/11/1 9/9/1 18/18/1 
f 19/16/2 20/17/2 21/4/2 
f 22/7/2 23/8/2 24/9/2 
f 25/10/2 22/7/2 24/9/2 
f 26/11/2 25/10/2 24/9/2 
f 26/11/2 24/9/2 27/18/2 
f 27/18/2 28/15/2 26/11/2 
f 27/18/2 19/16/2 28/15/2 
f 19/16/2 21/4/2 28/15/2 
f 29/5/2 28/15/2 21/4/2 
f 21/4/2 30/1/2 29/5/2 
f 31/3/2 29/5/2 30/1/2 
f 30/1/2 32/2/2 31/3/2 
f 33/12/2 25/10/2 26/11/2 
f 26/11/2 34/13/2 33/12/2 
f 34/13/2 26/11/2 28/15/2 
f 28/15/2 29/5/2 34/13/2 
f 35/6/2 34/13/2 29/5/2 
f 29/5/2 31/3/2 35/6/2 
f 36/14/2 33/12/2 34/13/2 
f 34/13/2 35/6/2 36/14/2 
f 37/19/3 30/1/3 21/4/3 
f 21/4/3 38/20/3 37/19/3 
f 38/20/3 21/4/3 20/17/4 
f 20/17/4 39/21/5 38/20/3 
f 40/22/6 39/21/5 20/17/4 
f 20/17/4 19/16/7 40/22/6 
f 41/23/8 40/22/6 19/16/7 
f 19/16/7 27/18/8 41/23/8 
f 41/23/8 27/18/8 24/9/8 
f 24/9/8 42/24/8 41/23/8 
f 42/24/8 24/9/8 23/8/9 
f 23/8/9 43/25/10 42/24/8 
f 43/25/10 23/8/9 22/7/11 
f 22/7/11 44/26/12 43/25/10 
f 45/27/13 44/26/12 22/7/11 
f 22/7/11 25/10/13 45/27/13 
f 45/27/13 25/10/13 33/12/13 
f 33/12/13 46/28/13 45/27/13 
f 46/28/13 33/12/13 36/14/14 
f 36/14/14 47/29/14 46/28/13 
f 48/30/15 47/29/14 36/14/14 
f 36/14/14 35/6/15 48/30/15 
f 48/30/15 35/6/15 31/3/15 
f 31/3/15 49/31/15 48/30/15 
f 49/31/15 31/3/15 32/2/16 
f 32/2/16 50/32/16 49/31/15 
f 37/19/3 50/32/16 32/2/16 
f 32/2/16 30/1/3 37/19/3 
f 51/24/17 9/9/17 8/8/18 
f 8/8/18 52/25/19 51/24/17 
f 52/25/19 8/8/18 7/7/20 
f 7/7/20 53/26/21 52/25/19 
f 54/27/22 53/26/21 7/7/20 
f 7/7/20 10/10/22 54/27/22 
f 54/27/22 10/10/22 12/12/22 
f 12/12/22 55/28/22 54/27/22 
f 55/28/22 12/12/22 14/14/23 
f 14/14/23 56/29/23 55/28/22 
f 57/30/24 56/29/23 14/14/23 
f 14/14/23 6/6/24 57/30/24 
f 57/30/24 6/6/24 3/3/24 
f 3/3/24 58/31/24 57/30/24 
f 58/31/24 3/3/24 2/2/25 
f 2/2/25 59/32/25 58/31/24 
f 60/19/26 59/32/25 2/2/25 
f 2/2/25 1/1/26 60/19/26 
f 60/19/26 1/1/26 4/4/26 
f 4/4/26 61/20/26 60/19/26 
f 61/20/26 4/4/26 17/17/27 
f 17/17/27 62/21/28 61/20/26 
f 63/22/29 62/21/28 17/17/27 
f 17/17/27 16/16/30 63/22/29 
f 64/23/17 63/22/29 16/16/30 
f 16/16/30 18/18/17 64/23/17 
f 64/23/17 18/18/17 9/9/17 
f 9/9/17 51/24/17 64/23/17 
f 57/33/31 49/34/31 50/35/32 
f 50/35/32 56/36/32 57/33/31 
f 56/36/32 50/35/32 37/37/33 
f 37/37/33 55/38/33 56/36/32 
f 55/38/33 37/37/33 38/39/33 
f 38/39/33 54/40/33 55/38/33 
f 54/40/33 38/39/33 39/41/34 
f 39/41/34 53/42/34 54/40/33 
f 62/43/35 44/44/35 45/45/36 
f 45/45/36 61/46/36 62/43/35 
f 61/46/36 45/45/36 46/47/36 
f 46/47/36 60/48/36 61/46/36 
f 60/48/36 46/47/36 47/49/37 
f 47/49/37 59/50/37 60/48/36 
f 59/50/37 47/49/37 48/51/31 
f 48/51/31 58/52/31 59/50/37 
f 58/52/31 48/51/31 49/34/31 
f 49/34/31 57/33/31 58/52/31 
f 53/53/34 39/54/34 40/55/38 
f 40/55/38 52/56/38 53/53/34 
f 52/56/38 40/55/38 41/57/39 
f 41/57/39 51/58/39 52/56/38 
f 51/58/39 41/57/39 42/59/39 
f 42/59/39 64/60/39 51/58/39 
f 64/60/39 42/59/39 43/61/40 
f 43/61/40 63/62/40 64/60/39 
f 63/62/40 43/61/40 44/44/35 
f 44/44/35 62/43/35 63/62/40 
# 0 polygons - 124 triangles

